<svg xmlns="http://www.w3.org/2000/svg" viewBox="0 0 50.55 62.13"><title>c</title><g id="Layer_2" data-name="Layer 2"><g id="Layer_1-2" data-name="Layer 1"><path d="M29.92,46.21a19.13,19.13,0,0,0,7.86-1.68,22.1,22.1,0,0,1,4.65-1.61c3.93-.62,7.17,1.73,8,5.77a22.22,22.22,0,0,1,.05,4.52C47.06,58.52,42,59.78,37,61.38c-6,2.15-17.11-.73-23.91-3.86C6.18,54,2.25,47.75.65,40.26-2.26,26.65,4.87,10.32,16.79,3.1c7.12-4.32,17.42-3.78,24.8-.5,3.25,1.45,4.55,5,3.77,8.43a7.78,7.78,0,0,1-6.18,5.78,15.38,15.38,0,0,1-4-.16c-1.62-.26-3.2-.56-7.49-1.35s-11.2,9.48-11.65,17.44C15.69,40,17.9,43,24.87,45,26.15,45.36,27.45,45.62,29.92,46.21Z"/></g></g></svg>