<svg xmlns="http://www.w3.org/2000/svg" viewBox="0 0 314.65 73.35"><title>cloudy</title><g id="Layer_2" data-name="Layer 2"><g id="Layer_1-2" data-name="Layer 1"><path d="M228.36,69.17c-4.62-1-7.16-3.66-7.68-8.76.78-1.68,1.74-3.77,3.06-6.65l-6.81-34.11c.64-3.29,3.16-5.53,7-6.77a24.72,24.72,0,0,1,13.77-.34A64.5,64.5,0,0,1,256,20.23c9,5.48,11.7,14.34,7.23,24.11-5.46,11.93-14.93,19.31-27.3,23.13C233.42,68.25,230.78,68.64,228.36,69.17Zm21.27-33.42c-6.86-5.45-6.86-5.45-14.58-6.28,2.21,6,.79,12.52,4.4,18C245.27,44.49,245.27,44.49,249.63,35.75Z"/><path d="M129.51,13.68a37.42,37.42,0,0,1,15.84,3.41c6.74,2.94,10.47,8.21,10.79,15.42.76,16.83-7.36,27.92-21.89,34.5-6.8,3.08-15.07.77-19.9-5-5.33-6.35-8.16-13.56-6.62-22,.35-2,.26-4,.81-5.91,1-3.47,1.89-7.12,3.65-10.22C116,17.1,121.48,12.62,129.51,13.68Zm-1.65,38.53c4.76-1.13,8-4.42,10.41-8.4a13,13,0,0,0,1.5-11.22c-6.52-3.23-6.52-3.23-13.37-1.83-2.38,3.62-3,7.92-3.4,12.14A9,9,0,0,0,127.86,52.21Z"/><path d="M29.92,55.26c3.39-1.39,6.75-2.78,10.12-4.12a22.5,22.5,0,0,1,4.65-1.61c3.93-.62,7.18,1.72,8,5.77a22.12,22.12,0,0,1,0,4.51c-3.39,5.31-8.44,7.32-13.46,8.92a33.51,33.51,0,0,1-26.17-2.16C6.18,63,2.25,56.8.65,49.31-2.26,35.7,4.87,19.37,16.79,12.14c7.12-4.31,14.59-4.05,22-.77,3.25,1.45,4.56,5,3.77,8.43a7.8,7.8,0,0,1-6.17,5.79,15.93,15.93,0,0,1-4-.17c-1.61-.26-3.19-.73-4.65-1.08-7.69,3.55-11.2,9.49-11.65,17.45-.4,7.21,1.81,10.28,8.78,12.26C26.15,54.41,27.45,54.67,29.92,55.26Z"/><path d="M198.67,14.37c4.53.41,7.34,2.83,8.33,7.24.57,2.57,1.38,5.2,1.29,7.78-.29,8.72-2.15,17.16-6.5,24.79A36.51,36.51,0,0,1,195,62.71c-8,7.42-18.32,6.87-25.6-1.15-4.32-4.78-7.57-10.43-8.31-16.73-.77-6.53-.37-13.25.06-19.85.24-3.75,2-7.07,6.3-8,3.72-.82,6.43.64,8.76,4.3,1.23,4.7,0,10,.05,15.27,0,4.79.67,9.28,3.78,13.1a19,19,0,0,0,2.58,2.14c5.67-2.84,6.94-8.32,8.62-13.63a28.63,28.63,0,0,0-.05-16.31C192.22,17.52,194.63,15.11,198.67,14.37Z"/><path d="M304.38,34.58c-.54,10.14,1.32,19.24,4,27.9-.43,5-3,7.59-7.49,8.47-4.63-.24-7.31-2.94-8.32-7.24-1.37-5.82-2.5-11.7-3.67-17.57-.32-1.62-.44-3.27-.7-5.25-4.5-2.62-9.87-4.09-13.11-8.61-2.51-3.49-5.48-6.74-6.34-11,2.89-7.83,3.56-8.23,11.38-7.09,4.29,2.29,5.25,7.9,10.43,9.72,4.22-1.69,6.55-5.11,7.69-9.47.41-1.59.32-3.31.62-4.95a23.82,23.82,0,0,1,1.23-4.8c1.29-3.12,5.08-5.18,8.07-4.6a8,8,0,0,1,6.4,6.8,33.28,33.28,0,0,1-5.19,21C307.92,30.1,306.19,32.14,304.38,34.58Z"/><path d="M77.53,56c2.61-.3,4.83-.46,7-.84,2.59-.46,5.13-1.41,7.73-1.58a7.75,7.75,0,0,1,7.9,6.2c.65,3-1.13,7.09-4.38,8.11a143.36,143.36,0,0,1-20.16,5.27c-7.19,1.17-12-3-13.23-10.31A88,88,0,0,1,61,42c.46-6.28.72-12.58,1.08-18.88a29.11,29.11,0,0,1,.33-4,7.07,7.07,0,0,1,6.18-5.62A7.43,7.43,0,0,1,76.73,18c1.39,3.17,1.15,6.47,1,9.8C77.37,35,77,42.33,76.83,49.63A48,48,0,0,0,77.53,56Z"/></g></g></svg>