<svg xmlns="http://www.w3.org/2000/svg" viewBox="0 0 45.17 44.97"><title>degrees</title><g id="Layer_2" data-name="Layer 2"><g id="Layer_1-2" data-name="Layer 1"><path d="M18.9,45c-3.67-1.11-7.46-1.87-11-3.41C2.69,39.29.27,34.5,0,28.34-.35,18.56,3.33,11,10.37,5.48A45.3,45.3,0,0,1,18.16.83,8.37,8.37,0,0,1,22.47,0c6,.54,11.7,2.43,16.32,6.89,9.84,9.5,7.67,23.39-2.26,31.3A31.32,31.32,0,0,1,18.9,45ZM14.74,27.2c4.29,3.15,7.92,1.09,11.47-.46a6.38,6.38,0,0,0,4.27-6c-.44-.67-.95-1.46-1.17-1.81-4.14-1-7.89-1.35-11.36,0C15.47,21.11,13.81,23.28,14.74,27.2Z"/></g></g></svg>