<svg xmlns="http://www.w3.org/2000/svg" viewBox="0 0 64.49 84.61"><title>eight_2</title><g id="Layer_2" data-name="Layer 2"><g id="Layer_1-2" data-name="Layer 1"><path d="M52,12.85c6.29-1.7,10.25.17,12.39,6.54-.58,1.66-1.33,3.8-1.87,5.36L43.6,37c-.82.53-1.63,1.08-2.89,1.92,2.72,3.26,6,4.12,8.73,5.7A33.78,33.78,0,0,1,62.11,57c3.29,5.7,3,11.44.15,17.13a15.89,15.89,0,0,1-9.61,8.21c-12.85,4.12-24.91,2.8-35.73-5.71-7.46-5.86-10-14-7.18-23.12.86-2.84,2.09-5.57,3.31-8.77-1.34-1.33-2.75-2.64-4.06-4a51.72,51.72,0,0,1-5.23-6c-5-7.49-6.41-19.28,4.44-27.49,9.65-7.3,20.55-9,32.06-5.41C45.5,3.48,49.36,7.14,52,12.85ZM25.17,62.56c5.42,4.41,9,6.2,13.36,6.4,3.62.16,7.17-.13,10.16-3.27-.77-1.29-1.19-2.66-2.12-3.42a45.83,45.83,0,0,0-7.21-5.13c-3.65-2-7.35-4.09-11.3-4.79C25.3,55.43,24.29,58.42,25.17,62.56ZM24,31.66a29,29,0,0,0,3.35-1.95c3.9-3,7.73-6.08,11.55-9.1-2.17-4.12-5.61-5.14-9.38-4.84-5.3.41-10.5,1.37-13.74,6.61C16.59,27.1,19.65,29.76,24,31.66Z"/></g></g></svg>