<svg xmlns="http://www.w3.org/2000/svg" viewBox="0 0 56.88 77.01"><title>eight_1</title><g id="Layer_2" data-name="Layer 2"><g id="Layer_1-2" data-name="Layer 1"><path d="M9.71,38.41c-2.39-3.08-4.44-5.41-6.12-8A19.64,19.64,0,0,1,.07,17.77C1,7.39,7.77.87,18.19.13,29-.64,36.09,1.9,43.61,9.42a29.36,29.36,0,0,1,4.63-.52c4.27.16,7.34,2.55,8.39,6.3,1,3.45-1,7.26-4.88,9.23-2.14,1.07-4.46,1.79-6.64,2.79-3.71,1.71-7.56,3.22-10.17,6.25-.26,2.5,1.65,3.09,2.75,4.24,2.14,2.22,4.61,4.19,6.41,6.66,5.12,7,5.57,14.57,1.57,22.32C42,73.88,35.57,76.7,27.91,77,12.47,77.58,2.83,65.9,6.17,50.67,7.05,46.68,8.43,42.79,9.71,38.41Zm14.52,9.11c-4.07,4-3.95,8.42-1.86,13.06C30.54,62,30.54,62,32.7,56.24,31.27,52.16,28.23,49.59,24.23,47.52Zm-5.9-22.43c4.8-2.7,8.25-4.32,10.11-8.46-5.05-1.31-9.32-2.56-13.91,1.39Z"/></g></g></svg>