<svg xmlns="http://www.w3.org/2000/svg" viewBox="0 0 63.78 76.84"><title>eight_0</title><g id="Layer_2" data-name="Layer 2"><g id="Layer_1-2" data-name="Layer 1"><path d="M45.71,8.42l9.57-4.6c1.87.87,4,1.37,5.57,2.67a8.26,8.26,0,0,1,.89,11.74,47.71,47.71,0,0,1-6.65,5.34c-4.83,3.6-10,6.69-14,11.14.21,2.65,2.17,3,3.42,4.07,2.16,1.87,4.58,3.48,6.42,5.64,4.42,5.21,4.85,11.43,1.62,17.43-6,11.08-22.27,17.76-33.82,13.88C9.1,72.48,4.82,64.39,7.68,54.18c1.18-4.2,3-8.21,4.74-12.88-2.09-2-4.5-4-6.61-6.37C-3,25.15-1.67,11.88,9.2,4.68c9-5.93,18.53-6,28.08-1.59C40.13,4.39,42.67,6.47,45.71,8.42ZM32.24,19.8c-5.47-4.53-10.26-3.91-15-.39-.52.38-.6,1.43-.88,2.17,2.94,3.57,2.94,3.57,8.09,5.36ZM28.69,49.31a20.22,20.22,0,0,0-3,3c-1,1.74-1.77,3.66-2.65,5.54,5.61,2.32,5.63,2.35,12.05-1.44.53-.31.68-1.36,1.32-2.74Z"/></g></g></svg>