<svg xmlns="http://www.w3.org/2000/svg" viewBox="0 0 48.8 68"><title>f</title><g id="Layer_2" data-name="Layer 2"><g id="Layer_1-2" data-name="Layer 1"><path d="M.43,18.33c-1.36-6.71.42-9.9,6.34-13A21.23,21.23,0,0,1,12.31,3C22.77.82,31-.53,41.67.2,46.35.51,49,3.73,48.79,8.14c-.16,3.3-1.84,5.93-5,6.69a34.79,34.79,0,0,1-8.86,1c-6.69-.16-10.79,1.08-17.09,2.17-1.18,5-1.22,5,.07,10.69a26.52,26.52,0,0,0,5.52.26c6.9-1.05,11.23,0,18.34-1.28a15,15,0,0,1,3.45,1.56c5.36,4.32,4.6,10.93-1.62,13.5a38.4,38.4,0,0,1-7.71,2c-6.18,1.13-9.86-.19-17.11,1,.95,7,.22,10,1,15.47a10.41,10.41,0,0,1-.38,1.41c-1.66,3.71-4.34,6-8.59,5.32S4.61,64.33,4,60.31c-.36-2.3-1.09-4.57-1.23-6.88"/></g></g></svg>