<svg xmlns="http://www.w3.org/2000/svg" viewBox="0 0 56.36 74.19"><title>five_1</title><g id="Layer_2" data-name="Layer 2"><g id="Layer_1-2" data-name="Layer 1"><path d="M0,66.6c.89-6.92,4.38-9.46,10.37-10a93.1,93.1,0,0,0,14.88-3c2-.5,3.67-2,5.5-3-.62-1.07-.81-1.92-1.25-2.08-2.38-.88-4.83-1.56-7.25-2.35-3.09-1-6.32-1.77-9.22-3.2C8.36,40.77,4.49,35,6.76,28.42c1.51-4.36,3.18-8.69,2-13.71-.46-2,1.64-4.49,2.44-6.45,4.57-2.21,8.83-3,13.1-3.81C30,3.37,35.69,2.13,41.38,1a45.59,45.59,0,0,1,6.44-1A7.72,7.72,0,0,1,56,5.76c1.08,4.38-.46,8.59-4.47,9.94-5.13,1.74-10.5,2.76-15.77,4.05-2.78.68-5.58,1.28-8.56,2l-1.95,5.88c.87,1.05,1.21,1.87,1.78,2.08,3.05,1.14,6.25,1.9,9.22,3.21A52.66,52.66,0,0,1,45.84,38c5.48,4,6.93,10.28,4.38,16.51A17.74,17.74,0,0,1,43.6,63c-4,2.54-8,5.22-12.4,6.66C25,71.68,18.53,72.73,12.13,74c-2.91.55-6,.25-8.23-1.89C2.17,70.39,1,68.1,0,66.6Z"/></g></g></svg>