<svg xmlns="http://www.w3.org/2000/svg" viewBox="0 0 58.26 77.59"><title>five_0</title><g id="Layer_2" data-name="Layer 2"><g id="Layer_1-2" data-name="Layer 1"><path d="M33.62,52.57c-3.49-1.92-7.15-1-10.64-1.24s-7.34-.08-10.89-.75c-6.7-1.27-9.71-4.93-9.72-11.81,0-4.63.66-9.26,1.1-14.76A22.32,22.32,0,0,1,2.2,20.17c-.81-4.57.95-7.75,5.28-9.5A46.35,46.35,0,0,1,13.2,9C23.8,6.22,34.39,3.44,45,.74A23.42,23.42,0,0,1,50.9,0a7.9,7.9,0,0,1,7.15,6,7.79,7.79,0,0,1-4.63,9,18.33,18.33,0,0,1-2.85.84c-8.7,2.15-17.4,4.27-26.09,6.46-1.59.4-3.11,1.08-4.88,1.71a21.74,21.74,0,0,0-.7,10.87c3.79,1.28,7.49.4,11,.82,3.29.38,6.71.39,9.81,1.37C49.3,40,53.29,49.5,49,58.61a26.92,26.92,0,0,1-13.23,13c-8.24,3.93-17.16,5-26.09,5.92A12,12,0,0,1,4,76.29,7,7,0,0,1,.05,68.87a7.42,7.42,0,0,1,5.37-6.52C7,61.83,8.7,62,10.33,61.74,14.92,61,19.58,60.53,24,59.32,27.76,58.31,31.8,57.2,33.62,52.57Z"/></g></g></svg>