<svg xmlns="http://www.w3.org/2000/svg" viewBox="0 0 65.33 73.51"><title>five_2</title><g id="Layer_2" data-name="Layer 2"><g id="Layer_1-2" data-name="Layer 1"><path d="M38.75,45.19c-3.61-2.76-7.53-3.12-11.52-3.39a52.5,52.5,0,0,1-8.88-1c-7-1.72-9.58-5.89-8.66-13.33a21.5,21.5,0,0,1,.69-2.74c-1.37-2-2.75-3.88-3.92-5.85a10.81,10.81,0,0,1-.79-2.77c1.09-5.62,4.95-7.5,10-8.16C22.91,7,30.16,6,37.34,4.66c6.84-1.27,13.6-3,20.92-4.66,1.09.5,2.83.88,4,1.9,4.63,4,3.87,10.68-1.53,13.09a45.1,45.1,0,0,1-8.57,2.59C45.37,19.07,38.5,20.3,31.7,21.83c-1.42.32-2.65,1.48-5.22,3,4.23,1.06,7.06,1.69,9.85,2.49,3.17.92,6.48,1.63,9.43,3.07,7.83,3.83,10.9,11.9,8.16,20.15a24,24,0,0,1-5.73,9.24C41.24,66.94,32.6,71.13,23,73.13a27.91,27.91,0,0,1-10.83-.41C5,71.29,0,67.45,0,59.28c2.42-4.65,2.42-4.65,7.39-7.09,4.24-.33,6.12,3.56,9.2,5.23,5.76.93,10.46-1.73,15-4.39C34.72,51.23,37.75,49.09,38.75,45.19Z"/></g></g></svg>