<svg xmlns="http://www.w3.org/2000/svg" viewBox="0 0 279.86 75.89"><title>foggy</title><g id="Layer_2" data-name="Layer 2"><g id="Layer_1-2" data-name="Layer 1"><path d="M20.57,48.68l3.56,18.17a10.46,10.46,0,0,1-.29,1.43c-1.45,3.8-4,6.25-8.27,5.8S9.2,70.9,8.33,66.92c-.49-2.28-1.35-4.5-1.62-6.79A39.26,39.26,0,0,0,1.24,44,42.89,42.89,0,0,0,.67,22.44C-1.07,15.82.52,12.54,6.25,9a21.82,21.82,0,0,1,5.39-2.56A115.36,115.36,0,0,1,43.19,2c4.69,0,7.53,3.1,7.57,7.51,0,3.3-1.5,6-4.61,7A35,35,0,0,1,37.36,18,100.1,100.1,0,0,0,18,21.06c-.89,5.05-.93,5.05.68,10.68,1.74,0,3.71.33,5.53-.06,6.83-1.45,13.61-3.13,20.63-4.78a14.8,14.8,0,0,1,3.54,1.37c5.59,4,5.22,10.64-.84,13.56A37.79,37.79,0,0,1,40,44.23C33.88,45.72,27.74,47.05,20.57,48.68Z"/><path d="M114.61,41c-1.55,10-5.5,20-15.29,26.56-5.4,3.63-11.5,5.11-18,3.21a58.82,58.82,0,0,1-7.58-2.32C56.85,60.87,52.38,41.16,64.22,26.9c2.53-3,5.06-6.08,7.6-9.12a8.22,8.22,0,0,1,6.94-3.3c8,.52,15.93,1.24,23.06,5.29C109.51,24.15,114.45,30.39,114.61,41ZM86.79,56.07C95.42,52.65,97.94,46,98.69,38.52c-2.83-5.38-7-6.71-11.31-6.72-8.64,1.63-14.07,5.56-14,14.72C75.08,52.92,80.42,54.52,86.79,56.07Z"/><path d="M170.29,68.33a18,18,0,0,1-1.76,3.81c-3.83,4.87-8.44,5-12.51.37a41.44,41.44,0,0,1-2.89-4.32c-1.67.43-3.23.86-4.8,1.24-8.54,2.06-15.74-.77-22-6.34A18.12,18.12,0,0,1,120,50c-.65-13.45,5.12-30.06,23.32-36.92a19.55,19.55,0,0,1,3.81-1.11,7.76,7.76,0,0,1,8.73,5c1.16,2.93-.12,6.73-3,8.75a16.48,16.48,0,0,1-3.52,1.86c-8.42,3.11-12.48,9.47-13.64,18-.08.65-.15,1.31-.22,2a7.06,7.06,0,0,0,5.57,6.23,5.65,5.65,0,0,0,6.44-2.09c1.64-3.22.82-6.91.9-10.52.11-4.42,2.36-7.18,6.15-7.87a7.91,7.91,0,0,1,8.72,5.07,32.59,32.59,0,0,1,1.31,4.79C166.43,51.31,168.25,59.4,170.29,68.33Z"/><path d="M207.77,16.08c-1,7.79-6.17,8.69-11.67,8.55-4.35,2.8-6.72,6.78-8.55,11.08A13.36,13.36,0,0,0,188.89,49c1.65,2.47,4,3.36,7.4,1.74,1.32-3.51-1.11-7.59.46-11.41,5.3-6.22,5.88-6.32,12.91-2,3.07,4.89,3,10.73,4.56,16.12,1,3.49,1.44,7.14,2.1,10.72,1.32,7.22-1.6,10.48-9.14,10.2a12,12,0,0,1-2.47-.83l-5-6.21c-3.87-.25-7.48-.34-11.06-.75-5.66-.65-9.85-3.77-12.83-8.5-5.89-9.34-7.14-19.16-2.54-29.4A47.06,47.06,0,0,1,183,14.85a20.85,20.85,0,0,1,13.28-6.17C201.72,8.2,206.06,10,207.77,16.08Z"/><path d="M259.48,40.09c.75,7.46,1.52,14,2,20.65a12.55,12.55,0,0,1-1,5.74c-1.37,3.06-4.14,4.12-7.41,3.87s-5.89-2.23-6.44-5.3c-.82-4.57-1.35-9.2-1.9-13.81-.4-3.28-.63-6.58-.92-9.71a11.84,11.84,0,0,0-2.45-2.15c-12-5.18-15-16.13-17.29-27.35-.86-4.2,1.51-7.3,5.28-8.4a7.44,7.44,0,0,1,9,4.25c1,2.1,1.42,4.43,2.28,6.58,1.21,3,2.59,6,3.9,9a42.6,42.6,0,0,0,5.27,1,37.51,37.51,0,0,0,4.94-.34c5.56-3.45,8.13-8.65,9.21-14.78.23-1.3.13-2.67.44-3.95A7,7,0,0,1,270.87,0c3.26-.26,5.95.82,7.52,3.77a11.68,11.68,0,0,1,1.3,7.69C277.9,22.19,272.87,30.82,264,37.1,262.64,38.05,261.25,38.92,259.48,40.09Z"/></g></g></svg>