<svg xmlns="http://www.w3.org/2000/svg" viewBox="0 0 52.22 73.31"><title>four_1</title><g id="Layer_2" data-name="Layer 2"><g id="Layer_1-2" data-name="Layer 1"><path d="M28.51,44.21c-3.17-.45-6.72.29-10.19,1.1a18.53,18.53,0,0,1-10.76-.88A10.81,10.81,0,0,1,0,33.84,25.26,25.26,0,0,1,1,27,95.19,95.19,0,0,1,10.62,5.16,15.18,15.18,0,0,1,13.83,1.4c2.1-1.8,6-1.83,8.45-.3,2.92,1.84,4.5,5.59,3.29,8.62-1.12,2.76-2.67,5.35-3.95,8C20.08,21,17.77,24,18,27.91c5.05,1.06,5.3,1,16-2.68,2.28-2.79,1.88-6.23,2.3-9.49a49.87,49.87,0,0,1,1.31-7.82,7.8,7.8,0,0,1,7.55-5.41c3.5.18,7,3.44,7.12,7.12a99.93,99.93,0,0,1-.59,10.93c-.28,3.3-.76,6.57-1.17,9.85-.16,1.32,0,2.79-.6,3.91-4,7.8-5.56,21.67-8.31,29.83a34.91,34.91,0,0,1-2.08,5.56,7.21,7.21,0,0,1-7.66,3.46c-3.34-.7-6.21-3.6-6.24-6.85a31.32,31.32,0,0,1,1-6.84c.62-2.92,2.17-10.92,2.86-13.82C29.43,45.45,29.08,45.14,28.51,44.21Z"/></g></g></svg>