<svg xmlns="http://www.w3.org/2000/svg" viewBox="0 0 55.88 75.57"><title>four_2</title><g id="Layer_2" data-name="Layer 2"><g id="Layer_1-2" data-name="Layer 1"><path d="M17.73,31.56a50.81,50.81,0,0,0,18.75-6.09c.71-3.48,1.4-7,2.16-10.57.7-3.24,1.25-6.53,2.26-9.68A7.65,7.65,0,0,1,49.56.12,8,8,0,0,1,55.88,8a15,15,0,0,1-.3,2c-3.23,20.28-6.47,40.57-9.78,61.35C44.57,73.83,42,75.1,39,75.57c-4.19-.46-6.66-2.8-7.88-7.15C32,61,32.89,53.2,33.79,45.61c-2.78-2.1-4.71.35-6.9.46a25.56,25.56,0,0,0-5.89,1c-4,1.18-7.92.48-11.77-.67C2.8,44.47,0,40.63,0,33.94a39.49,39.49,0,0,1,.41-5C1.6,19.55,5.6,11.19,10.62,3.29A7.09,7.09,0,0,1,18.46.19a7.51,7.51,0,0,1,5.72,5,8.25,8.25,0,0,1-.63,6.73c-2.16,4.48-4.29,9-6.28,13.53a11,11,0,0,0-.59,3.9C16.67,29.91,17.2,30.48,17.73,31.56Z"/></g></g></svg>