<svg xmlns="http://www.w3.org/2000/svg" viewBox="0 0 50.08 75.35"><title>four_0</title><g id="Layer_2" data-name="Layer 2"><g id="Layer_1-2" data-name="Layer 1"><path d="M23.86,48.63c-5.23-.47-9.52-.49-13.62-1.36a17.36,17.36,0,0,1-6.88-3.7c-3.1-2.51-3.93-6.07-3-9.93C.75,32,1.46,30.5,2,28.93Q5.38,19,8.74,9.15c.53-1.58.91-3.22,1.58-4.73A7.58,7.58,0,0,1,19.46.34a7.35,7.35,0,0,1,5.39,8.41c-.69,3.92-1.94,7.73-2.89,11.6S18.65,27.47,18.56,32c4.12.73,7.47-.86,11.17-1.44a37.36,37.36,0,0,0,4.52-15.14,38.69,38.69,0,0,1,1.48-7.79,7.05,7.05,0,0,1,7.83-4.77C47,3.3,50,6,50.07,9.35a56.29,56.29,0,0,1-1,12.85,196.78,196.78,0,0,1-5.57,19.11c-2.93,8.82-6.17,17.54-9.27,26.3-.33.94-.48,2-.86,2.86A7.73,7.73,0,0,1,23.5,74.9a7.89,7.89,0,0,1-5.12-8.71,54.7,54.7,0,0,1,1.85-6.71C21.33,56,22.53,52.59,23.86,48.63Z"/></g></g></svg>