<svg xmlns="http://www.w3.org/2000/svg" viewBox="0 0 47.91 80.13"><title>nine_1</title><g id="Layer_2" data-name="Layer 2"><g id="Layer_1-2" data-name="Layer 1"><path d="M47.91,20.47C44,31.64,42.78,44.17,42.06,56.79c-.3,5.31-1,10.58-1.58,15.87a8.46,8.46,0,0,1-.15,1,8.26,8.26,0,0,1-6.77,6.44,8,8,0,0,1-8.2-5.91,26.81,26.81,0,0,1-.1-6.88c.2-3.32.63-6.62.89-9.93.1-1.28,0-2.57,0-3.45-2-2.11-3.43-.58-4.9-.32a47.8,47.8,0,0,1-5.88,1C6.6,55,.7,50,.1,41.16-.64,30.4,2.88,20.85,9.25,12.33a52.48,52.48,0,0,1,5.49-5.78C21.93-.53,30.77-.84,39.89.86c3.55.66,5.6,3.39,6.16,7S47.11,15,47.91,20.47ZM29.78,16.34c-5.62,1.32-8.47,5.27-10.57,9.65-1.72,3.58-4.35,7.29-2,12C23,35.52,26,30.84,28.72,26A11.06,11.06,0,0,0,29.78,16.34Z"/></g></g></svg>