<svg xmlns="http://www.w3.org/2000/svg" viewBox="0 0 53.88 75.42"><title>nine_0</title><g id="Layer_2" data-name="Layer 2"><g id="Layer_1-2" data-name="Layer 1"><path d="M33.49,51.19a58.94,58.94,0,0,1-7.12,3c-7.36,2-14.51,2-20.68-3.4-4-3.5-6.34-8-5.53-13.25C1.92,26.05,6.28,15.66,15.63,8.25a53.08,53.08,0,0,1,12-6.87A21.38,21.38,0,0,1,38.42.18c6,.64,10.16,2.67,10.87,9.33a8.9,8.9,0,0,0,2.1,4.3,10.71,10.71,0,0,1,1.94,10.35C52,28.72,52,33.34,51.7,38c-.73,9.94-1.5,19.88-2.37,29.8-.33,3.82-2.61,6.53-5.74,7.35-5,1.31-9.47-1.67-9.86-7-.27-3.62.22-7.3.18-11C33.88,55.29,35.24,53.33,33.49,51.19ZM16.17,37.49c2,2.64,4.41,2,6.47,1A27.6,27.6,0,0,0,37.3,20.73c.43-1.51.78-3.27-1.09-5.07-4.44.26-8.29,2.51-11.71,5.64C19.66,25.72,17.34,31.42,16.17,37.49Z"/></g></g></svg>