<svg xmlns="http://www.w3.org/2000/svg" viewBox="0 0 50.43 78.21"><title>nine_2</title><g id="Layer_2" data-name="Layer 2"><g id="Layer_1-2" data-name="Layer 1"><path d="M33.9,42.05c-3.1,1.87-5.57,3.48-8.15,4.87-4.52,2.45-9.23,3.44-14.38,2a13.6,13.6,0,0,1-8.91-7.36c-3-6-3.07-12.16-1.29-18.43C4.75,10.54,19.7-.77,32.85,0A35.17,35.17,0,0,1,41.49,2c3.82,1.24,5.82,4.11,6.42,8.1C49,17.3,50.56,24.45,50.43,31.82c-.21,12-.26,23.92-.56,35.88a17.74,17.74,0,0,1-1.61,6.65,7.26,7.26,0,0,1-7.52,3.74c-3.14-.72-5.47-2.57-6.24-5.76a24,24,0,0,1-.39-5.94c.11-6,.4-12,.47-17.93A55.63,55.63,0,0,0,33.9,42.05ZM17,33.36c8.39-5.16,10.63-7.84,13.71-16.19-2-1.65-3.69-.18-5.39.62a17.93,17.93,0,0,0-7.9,7.29A8.29,8.29,0,0,0,17,33.36Z"/></g></g></svg>