<svg xmlns="http://www.w3.org/2000/svg" viewBox="0 0 57.76 73.42"><title>one_1</title><g id="Layer_2" data-name="Layer 2"><g id="Layer_1-2" data-name="Layer 1"><path d="M0,66.26c.57-4.45,2.67-6.88,6-8.17,4-1.55,8.09-2.9,12-4.29a73.2,73.2,0,0,0,6.36-30.31c-2.49,1.42-4.66,2.76-6.94,3.91A21.42,21.42,0,0,1,12,29.6a6.88,6.88,0,0,1-7.51-3.72,7.67,7.67,0,0,1,.71-8.43A8.42,8.42,0,0,1,7.3,15.36C15.68,10.06,24.11,4.8,31.77,0c3.88.05,6.2,1.16,8.07,3.21S42,8,42,10.68c.14,9.69-1.89,19.13-3.32,28.63-.45,2.95-1.11,5.87-1.66,8.75,1.68,1.91,3.75,1.15,5.63.89,2.28-.31,4.51-1.14,6.8-1.39a7.79,7.79,0,0,1,8.1,6,7.34,7.34,0,0,1-3.84,8.38,27.21,27.21,0,0,1-6.63,1.87C35.36,66,23.67,68.38,12.34,72.3,5.62,74.63,3.87,73.63,0,66.26Z"/></g></g></svg>