<svg xmlns="http://www.w3.org/2000/svg" viewBox="0 0 52.71 74.19"><title>one_2</title><g id="Layer_2" data-name="Layer 2"><g id="Layer_1-2" data-name="Layer 1"><path d="M5.92,74.19C4.68,73.36,3,72.7,2,71.5-1.86,66.83.09,60.44,5.86,58.91c3.17-.84,6.51-1.07,9.66-3,1.35-8.3,2.72-16.74,4.09-25.12-1.43-1.57-2.45.17-3.62.24s-2.62.47-3.92.45a5.74,5.74,0,0,1-2.84-.78,10.46,10.46,0,0,1-2.9-2.6,23.28,23.28,0,0,1-1.87-4c1.06-1.86,1.75-4.28,3.34-5.7C14,12.8,20.38,7.5,26.86,2.31A12.27,12.27,0,0,1,32.3.11a7,7,0,0,1,8.25,6.63,34.14,34.14,0,0,1-1,7.82c-2.17,10.38-4.5,20.73-6.65,31.12a16,16,0,0,0-.07,8c4.27-.3,8.17-.64,12.07-.82A7.33,7.33,0,0,1,51,55.74c2.64,3.16,2.23,8.29-1.09,10.63a13.18,13.18,0,0,1-5.4,2.25C32,70.52,19.57,72.24,5.92,74.19Z"/></g></g></svg>