<svg xmlns="http://www.w3.org/2000/svg" viewBox="0 0 264.5 69.87"><title>rainy</title><g id="Layer_2" data-name="Layer 2"><g id="Layer_1-2" data-name="Layer 1"><path d="M7.27,4.7c4.39-.24,9-.63,13.65-.72C30.4,3.79,38.39,7.36,45,14c8.45,8.51,8.07,19-1.1,26.92-2.75,2.37-5.82,4.36-8.63,6.45-.22,1.88,1,2.42,2.22,2.86C41,51.49,44.34,53,47.87,53.81c4.43,1,7.08,3.37,8,8-.34,4.42-2.89,7-7.59,8.1-10.79-1.4-20.32-7.14-30.46-11-2.92.9-2.22,3.81-3.27,5.69-1.83,3.27-4.5,4.71-8.21,4.19S.54,65.94.16,62a51.69,51.69,0,0,1-.14-6c.12-9.3.29-18.61.4-27.91a55.51,55.51,0,0,0-.19-8.94C-.74,12.81,1.76,8.29,7.27,4.7ZM34.79,27.32a11.43,11.43,0,0,0-8.31-6.72c-3.08-.77-6.45-1.87-9.65.94-.49,5.14-1,10.32-.08,16.06C24,35.78,30.06,32.94,34.79,27.32Z"/><path d="M166.85,42.36c-1.58,4.21-.63,7.88-.4,11.45.35,5.52-1.82,8.93-7.26,10.18-5.6-.68-8.2-4.17-8.62-9.38-.84-10.29-1.52-20.59-2.17-30.89a18,18,0,0,1,1.85-9.7,7.36,7.36,0,0,1,11.12-2.23,51.48,51.48,0,0,1,4,4.44q11.85,12.84,23.75,25.66A15.21,15.21,0,0,0,192,43.71a64.69,64.69,0,0,0-.52-19.1,38.84,38.84,0,0,1-.9-6.89,7.92,7.92,0,0,1,7.75-7.6,7.61,7.61,0,0,1,7.75,6.43c1.83,10.85,3.16,21.76,2,32.79a35.56,35.56,0,0,1-1.75,7.77c-2.14,6.15-7.2,8.67-13.52,6.85a21.77,21.77,0,0,1-9.34-5.61c-4-4-7.93-8.08-11.95-12.07C170.18,45,168.63,43.84,166.85,42.36Z"/><path d="M96.74,53.33c-6.87-.66-13,1.2-19.25,1.45-1.53,1.48-2.86,3-4.39,4.2a7.33,7.33,0,0,1-8.42.71,7.89,7.89,0,0,1-3.92-8.45,53.21,53.21,0,0,1,2.48-8.6C66.72,34,70.36,25.47,74,16.92a24.29,24.29,0,0,1,2.44-4.33A10.87,10.87,0,0,1,92.14,9.85,22.33,22.33,0,0,1,97,14.76c9.28,13,14.68,27.46,17,43.15a7.8,7.8,0,0,1-5.22,8.61c-4.65,1.31-8.6-.78-10.14-5.54C97.89,58.52,97.4,56,96.74,53.33ZM90.16,36.82c.91-3.34-1.32-5.41-3.14-8-3.06,2.1-3.83,5.11-4.38,8.3A7.07,7.07,0,0,0,90.16,36.82Z"/><path d="M240.17,21.91c4.94-1.47,6.58-5.12,7.82-9,.7-2.19.75-4.6,1.38-6.83,1.28-4.59,4.49-6.65,8.94-6,3.83.57,6.22,3.37,6.19,7.77-.06,9-3,17-9.5,23.38-1.63,1.62-3.49,3-5.54,4.79,1,6.81.79,13.78,2.55,20.58a8.68,8.68,0,0,1-.69,6.77c-1.46,2.54-3.8,3.58-6.77,4.07-5.3-.72-7.69-4.17-8.29-9.41-.76-6.6-1.68-13.18-2.6-20.37-4.15-3.54-9.46-6.69-12.21-12.18-1.92-3.83-3.45-7.86-5.14-11.77.88-1.83,1.31-3.56,2.35-4.73,3.88-4.34,9.64-3.91,12.59.88,1.21,2,2,4.18,3,6.27A10.17,10.17,0,0,0,240.17,21.91Z"/><path d="M136.61,15.17c.51,4.4,1.15,9,1.57,13.59.62,6.93,1.12,13.88,1.59,20.83a29.74,29.74,0,0,1,0,6.93c-.87,5.16-7,8-11.66,5.46a6.71,6.71,0,0,1-3.69-5.58c-.88-12.24-1.69-24.48-2.51-36.72-.27-4.08,1.28-7.17,5.19-8.69C130.8,9.55,133.45,11.4,136.61,15.17Z"/></g></g></svg>