<svg xmlns="http://www.w3.org/2000/svg" viewBox="0 0 154 156.02"><title>rainy</title><g id="Layer_2" data-name="Layer 2"><g id="Layer_1-2" data-name="Layer 1"><path d="M121,102H37.87a38.5,38.5,0,0,1-2.43-76.87,44.5,44.5,0,0,1,83.76,11c.6-.06,1.21-.09,1.8-.09a33,33,0,0,1,0,66ZM38.07,86H121a17,17,0,0,0,0-34,25.14,25.14,0,0,0-4.26.86c-2.12.56-3.8,1-5.94.51a8.7,8.7,0,0,1-6.8-8.89,28.5,28.5,0,0,0-55.31-9.65A9.34,9.34,0,0,1,39.41,41l-.91,0a22.5,22.5,0,0,0-.43,45ZM120,44.71v0Z"/><path d="M23.48,156a8,8,0,0,1-7.27-11.34l12-26.15a8,8,0,0,1,14.55,6.67l-12,26.15A8,8,0,0,1,23.48,156Z"/><path d="M64.48,152a8,8,0,0,1-7.27-11.34l12-26.15a8,8,0,0,1,14.55,6.67l-12,26.15A8,8,0,0,1,64.48,152Z"/><path d="M103.48,156a8,8,0,0,1-7.27-11.34l12-26.15a8,8,0,0,1,14.55,6.67l-12,26.15A8,8,0,0,1,103.48,156Z"/></g></g></svg>