<svg xmlns="http://www.w3.org/2000/svg" viewBox="0 0 73.13 76"><title>seven_2</title><g id="Layer_2" data-name="Layer 2"><g id="Layer_1-2" data-name="Layer 1"><path d="M40.12,16.08c-9.79,1.15-18.8.7-27.2,4.49A18.69,18.69,0,0,1,9.2,21.94a7.46,7.46,0,0,1-8.35-4c-1.53-3.09-1-7.15,1.83-9C6,6.79,9.57,4.62,13.33,3.76A162.57,162.57,0,0,1,49,0c5.89,0,7.12,1.06,10.49,7.29.35,6-3.41,11.28-3.19,18,2.77-.51,4.93-1.18,7.1-1.21a14.46,14.46,0,0,1,5.74,1.07,6.66,6.66,0,0,1,4,6.42,6.92,6.92,0,0,1-3.77,6.58A29.33,29.33,0,0,1,63.72,40c-4.14,1.11-8.3,2.14-12.7,3.26-1.08,4.09-4.25,14-5.41,17.75a97.75,97.75,0,0,1-4,11.26c-1.39,3.06-5.09,4.3-8.58,3.5a7.07,7.07,0,0,1-5.48-7.37,33.86,33.86,0,0,1,1.18-5.83c.77-3.16,3.9-12.32,4.83-15.88-7.36-1.3-14.47,1-21.19-1.42-5.52-6-5.54-6.79-.14-13.45l24.47-2C39.4,25.78,40.38,21.75,40.12,16.08Z"/></g></g></svg>