<svg xmlns="http://www.w3.org/2000/svg" viewBox="0 0 74.16 77.96"><title>seven_0</title><g id="Layer_2" data-name="Layer 2"><g id="Layer_1-2" data-name="Layer 1"><path d="M44.39,31.62c1.67-4,3.31-7.95,4.92-11.82-1.57-1.67-3.15-.91-4.72-.63A183,183,0,0,1,8.94,22.42,41.76,41.76,0,0,1,4.56,22C1.93,20.47.49,18.76.12,16.26c-.61-4.11,1.15-7.33,5-8.6a18.79,18.79,0,0,1,5.83-1A180.81,180.81,0,0,0,56.29.69,31.34,31.34,0,0,1,61.23.06C70.68-.8,75,7.24,70.55,14.28c-1.59,2.53-3,5.15-4.45,7.78C65.35,23.47,64.86,25,64,27c4.42.92,8.36,1.89,9.8,6.3.72,2.22.39,3.27-2.91,8.46-2.14.66-4.64,1.5-7.18,2.22-2.21.62-4.47,1.11-7.09,1.75-4,7.59-6.73,15.78-10,23.73-.37.91-.34,2-.68,2.91a7.88,7.88,0,0,1-6.5,5.49c-3.3.51-5.82-1-7.49-3.78a30.85,30.85,0,0,1-1.52-3.42c.34-7,4.67-12.61,6.2-19.63a36,36,0,0,0-5-.76c-4-.05-8,.28-11.95.09-3.1-.15-5.38-2.7-5.9-5.84-.62-3.78.77-7.33,3.95-8.25a71.09,71.09,0,0,1,10.73-1.79c3.29-.43,6.63-.5,9.9-1A41.81,41.81,0,0,0,44.39,31.62Z"/></g></g></svg>