<svg xmlns="http://www.w3.org/2000/svg" viewBox="0 0 72.75 73.38"><title>seven_1</title><g id="Layer_2" data-name="Layer 2"><g id="Layer_1-2" data-name="Layer 1"><path d="M52.21,46.15c-3.07,4.39-4,9.37-5.76,14-1.07,2.79-1.78,5.74-3.06,8.41-2,4.11-6.35,5.83-10,4.27A7.93,7.93,0,0,1,28.84,63C30,58.86,32.21,55,32.33,50.43c-4.74-2.2-9.15.66-13.66.68-5.52-2.33-5.52-2.33-7.78-7.83.71-4.89,3.48-7.39,8.53-8.06C26.3,34.3,33.1,32.85,40,31.62c1.25-2.42,2.35-4.44,3.36-6.5s1.92-4.18,3.18-6.94c-2.13-.14-3.71-.55-5.19-.29-4.9.85-9.75,2.08-14.65,2.9C19.38,22,12.1,22.32,5,19.53A7.29,7.29,0,0,1,0,11.8,7.39,7.39,0,0,1,7,4.65a3.64,3.64,0,0,1,1,0C19.09,7.34,29.73,4.22,40.46,2,43.71,1.36,47,.94,50.29.39c8.56-1.42,12.37.87,15,9,.29.94.36,2,.67,3.69L60.11,28.43c2.93.33,5.24.4,7.46.89,3.11.67,5,3.18,5.16,6.5.23,3.82-1.57,6.86-4.94,7.67S61.25,44.67,58,45.22Z"/></g></g></svg>