<svg xmlns="http://www.w3.org/2000/svg" viewBox="0 0 59.07 77"><title>six_1</title><g id="Layer_2" data-name="Layer 2"><g id="Layer_1-2" data-name="Layer 1"><path d="M25.17,30c5.1,0,8.75-.2,12.38.06a35.49,35.49,0,0,1,8.77,1.57C56.63,35.17,61.35,45.36,58,55.7A31.63,31.63,0,0,1,22.35,76.45c-8.47-1.58-16-9.91-17.58-19.64-.53-3.32-1-6.36-3.21-9.21-2.5-3.31-1.88-6.93,1-10,.9-1,2-1.74,3.23-2.8C8.07,28.48,10.73,22,15,16.37A48.22,48.22,0,0,1,28.1,4.23,28,28,0,0,1,43.29,0c4.42,0,7.31,2.24,7.89,6,.69,4.47-1.27,7.47-5.91,9a18.4,18.4,0,0,1-2.89.77C34.37,17,29.66,22.3,25.17,30Zm-4.4,17.38c-2.05,4.47-.65,7.48,1,10.37,1.43,2.47,3.84,3.5,6.56,3.87,8.26-2.45,10.74-3.82,13.27-7.78,1.26-2,2.11-4.14.13-7C35.05,44.78,28,45.77,20.77,47.38Z"/></g></g></svg>