<svg xmlns="http://www.w3.org/2000/svg" viewBox="0 0 62.11 80.36"><title>six_0</title><g id="Layer_2" data-name="Layer 2"><g id="Layer_1-2" data-name="Layer 1"><path d="M48.28,2.47c4.13,7.07,4.13,7.07-1.81,13.13l-9.56.54c-6.55,3.64-11.3,9-15.7,15.67,1.5.29,2.35.68,3.13.56,7.32-1.06,14.59-1.12,21.72,1.06a41.5,41.5,0,0,1,7.41,2.87c8,4.34,10.71,11.85,7,20.3-4.77,10.87-12.77,18.63-24,22.51s-24.63-1.49-31.15-12C-.72,57.37-1.3,47,2,36.38a59.53,59.53,0,0,1,22.4-31C31.57.18,39.2-2.13,48.28,2.47ZM28.56,64.68c9.65-2.94,12.55-5.38,16.69-14.16-4.78-4-10.55-3-16-2.69-4.54.26-9.09,1.38-12.31,5.49C17.8,60.41,22.35,63.44,28.56,64.68Z"/></g></g></svg>