<svg xmlns="http://www.w3.org/2000/svg" viewBox="0 0 53.55 80.24"><title>six_2</title><g id="Layer_2" data-name="Layer 2"><g id="Layer_1-2" data-name="Layer 1"><path d="M23.16,29.48H35.1a22.84,22.84,0,0,1,11.41,3.23C52.19,36,54.9,41.89,52.88,48c-3.6,11-9.34,20.7-18.78,27.69C21,85.43,4.63,78.76.93,62.87-.9,55,.28,47.49,1.77,40.11A64,64,0,0,1,14.5,12.19,33.14,33.14,0,0,1,33.56.2a8.26,8.26,0,0,1,9.63,5.2A7.46,7.46,0,0,1,38.26,15C32.13,16.83,27.41,20,24.39,25.57A27.42,27.42,0,0,0,23.16,29.48Zm13.49,16.8c-10.83-1.56-14.36-1-20.57,3.12-.1,1.16-.28,2.45-.32,3.76a32.56,32.56,0,0,0,.09,4,15.15,15.15,0,0,0,.6,2.89c1.17,4,5.18,5.33,8.61,2.81a26.37,26.37,0,0,0,3-2.63A36.17,36.17,0,0,0,36.65,46.28Z"/></g></g></svg>