<svg xmlns="http://www.w3.org/2000/svg" viewBox="0 0 308.56 67.12"><title>snowy</title><g id="Layer_2" data-name="Layer 2"><g id="Layer_1-2" data-name="Layer 1"><path d="M212.16,28.22c4.05.51,7.75,3.27,11.26,6.42,3.19,2.87,5.91,6.31,9.94,8.67C237.42,38,237,31.85,236.8,26S235.66,14.14,235,7.65c1.74-4.72,1.77-4.7,6.93-7.18,4.59.4,7.55,2.62,8.63,7.7,2.61,12.22,3.38,24.37-.17,36.5a34.76,34.76,0,0,1-3.57,8.17c-4.53,7.49-12,9.48-19.75,5.21a57.45,57.45,0,0,1-8-5.89c-2-1.64-3.92-3.5-5.81-5.21-3.37,1.14-4.42,4.22-6.42,6.35s-3.88,4.64-6.29,6.28C195,63.29,189.45,62,186.05,56.2A37.13,37.13,0,0,1,182.5,47c-.93-3.52-1.3-7.19-1.91-10.79-.77-4.58-1.56-9.16-2.27-13.75a39.58,39.58,0,0,1-.59-5.94,6.79,6.79,0,0,1,5.74-7.07c4.08-.69,7.7.95,8.72,4.79,1.63,6.09,2.71,12.31,4,18.5.37,1.85.51,3.75.9,6.68C201.78,34.57,204.28,28.22,212.16,28.22Z"/><path d="M98,46.47c1.48-9-.16-16.36-2.73-23.58a42.11,42.11,0,0,0-2-4.55c-2.57-5.23,2.1-11.5,7.55-10.92a12.8,12.8,0,0,1,2,.27,20.66,20.66,0,0,1,2.19.89c3.8,3.62,5.16,8.88,6.72,13.89a67.87,67.87,0,0,1,2.68,26.62,27.75,27.75,0,0,1-2.17,8.61c-2.48,5.59-7,7.81-13,6.48a25.39,25.39,0,0,1-8.23-3.34c-5.84-3.8-11.44-8-17.09-12.05-2.1-1.53-4.06-3.25-6.89-5.53-.18,3.21-.15,5.42-.46,7.58a8.1,8.1,0,0,1-7.25,7.08,7.69,7.69,0,0,1-8.09-6,33.06,33.06,0,0,1-.74-5.9q-.95-12.91-1.79-25.83a13.43,13.43,0,0,1,.12-4,7.75,7.75,0,0,1,5.94-6.07,7,7,0,0,1,7.22,2.29c.89,1,1.5,2.18,2.3,3.24A123.86,123.86,0,0,0,93.39,44C94.45,44.7,95.66,45.21,98,46.47Z"/><path d="M172.54,30.22c-.27,13.55-9.42,26-21.77,30.07-7.62,2.5-14,.5-19.11-4.86-8.75-9.09-12-19.75-7.34-32C128.14,13.26,136,7.9,147.62,8.21A33.82,33.82,0,0,1,161,11.75C168.3,15.29,173,21.06,172.54,30.22ZM155.8,26.79c-1.88-.81-3.63-1.71-5.48-2.31A14.2,14.2,0,0,0,146.4,24a7.37,7.37,0,0,0-7.49,5.33c-.88,2.9-1.26,5.93-.12,8.78,1.23,3.06,2.89,6,6.26,7.24,4.07-.45,6.62-3,8.56-6.14C155.7,35.76,157.35,32.16,155.8,26.79Z"/><path d="M30,17.39c-4.85.21-8.92-3.16-13-.28-.16,2.3,1.34,3.26,2.59,4.26,4.18,3.3,8.48,6.44,12.64,9.76,3.4,2.7,6.53,5.65,8.37,9.74,2.63,5.86,1.25,11.57-4.31,14.65a50.81,50.81,0,0,1-21.75,6.65,18.67,18.67,0,0,1-3-.07c-4.45-.44-8.14-3.1-9-6.75-.93-4.15,1-7,4.56-9,4.58-1.76,10,1.84,14.62-2.74A22.34,22.34,0,0,0,19.41,41c-4.39-3.55-9-6.86-13.23-10.6A16.83,16.83,0,0,1,0,16.24a14,14,0,0,1,3.68-9,21.21,21.21,0,0,1,17.91-7A37.17,37.17,0,0,1,30.38,2c6.73,2.18,8,9.19,2.53,13.93A13.4,13.4,0,0,1,30,17.39Z"/><path d="M260,12.35c.79-1.72,1.11-3.08,1.91-4.08,4-5,9.82-4.72,13.06.69,1.19,2,2.05,4.17,3.13,6.22,1.54,2.92,2.91,6,6.16,7.49,4.37-.64,6-3.94,7.15-7.43.64-1.87.71-3.92,1.18-5.85a26.66,26.66,0,0,1,1.5-4.74A7.84,7.84,0,0,1,302.2.09a7.57,7.57,0,0,1,6.35,7.79c-.7,9.8-2.66,19.16-11,25.71-1,.81-1.95,1.77-3.15,2.87a89.88,89.88,0,0,0,.51,19.73c.86,5.49-.81,9-6.18,10.93-5.51,0-8.35-3.12-9.19-8.37-.47-2.94-.84-5.91-1.05-8.88-.26-3.63-.3-7.28-.45-11.35C268.71,32.43,263.75,23.22,260,12.35Z"/></g></g></svg>