<svg xmlns="http://www.w3.org/2000/svg" viewBox="0 0 153.16 153.16"><title>snowy</title><g id="Layer_2" data-name="Layer 2"><g id="Layer_1-2" data-name="Layer 1"><path d="M63.88,73.16A13.13,13.13,0,1,0,80,63.87a13.47,13.47,0,0,0-3.43-.45,13.19,13.19,0,0,0-12.67,9.74Z" style="fill:none"/><path d="M149.73,51.57,134,40.63a8,8,0,1,0-9.13,13.13l1.51,1.06L101.5,61.49a29,29,0,0,0-9.94-9.92l6.67-24.92,1.25,1.8a8,8,0,0,0,13.14-9.14l-11-15.88a8,8,0,0,0-10-2.67L74.28,8.9a8,8,0,1,0,6.8,14.48l1.67-.78L76.1,47.44a29.13,29.13,0,0,0-13.72,3.7L44.21,33l2.18-.18a8,8,0,0,0-1.34-15.95L25.78,18.47a8,8,0,0,0-7.3,7.3L16.86,44.85a8,8,0,0,0,7.3,8.65c.23,0,.46,0,.68,0a8,8,0,0,0,8-7.32L33,44.36,51.07,62.47A29.38,29.38,0,0,0,47.43,76L22.6,82.63,23.38,81A8,8,0,1,0,8.9,74.15L.76,91.48a8,8,0,0,0,2.67,10l15.88,11a8,8,0,1,0,9.14-13.14l-1.8-1.24,24.88-6.67a28.85,28.85,0,0,0,10.06,10.12l-6.65,24.83-1-1.52A8,8,0,0,0,40.75,134l10.94,15.72a8,8,0,0,0,6.57,3.43,7.87,7.87,0,0,0,3.4-.76l17.5-8.23a8,8,0,1,0-6.81-14.48l-2,.93,6.68-24.92a29,29,0,0,0,13.61-3.64l18.28,18.28-1.84.15a8,8,0,0,0,.67,16l.68,0,19.08-1.62a8,8,0,0,0,7.3-7.3l1.62-19.27a8,8,0,0,0-15.95-1.34l-.18,2.18L102,90.79a29.48,29.48,0,0,0,3.7-13.87l24.9-6.67-.93,2A8,8,0,0,0,144.17,79l8.23-17.5A8,8,0,0,0,149.73,51.57ZM76.55,63.42a13.47,13.47,0,0,1,3.43.45,13.08,13.08,0,1,1-3.43-.45Z"/></g></g></svg>