<svg xmlns="http://www.w3.org/2000/svg" viewBox="0 0 154 158.75"><title>stormy</title><g id="Layer_2" data-name="Layer 2"><g id="Layer_1-2" data-name="Layer 1"><path d="M101.47,110H90.35A1.64,1.64,0,0,1,89,107.47L96.37,96H61.15L51,112.88a1.63,1.63,0,0,0,1.4,2.48H70.32a1.64,1.64,0,0,1,1.4,2.49l-13.88,22.4a1.65,1.65,0,0,0,1.4,2.5,1.69,1.69,0,0,0,.9-.28L102.36,113A1.63,1.63,0,0,0,101.47,110Z" style="fill:none"/><path d="M138,66c0-9.37-7.63-14-17-14a25.14,25.14,0,0,0-4.26.86c-2.12.56-3.8,1-5.94.51a8.7,8.7,0,0,1-6.8-8.89,28.5,28.5,0,0,0-55.31-9.65A9.34,9.34,0,0,1,39.41,41l-.91,0C26.09,41,16,48.09,16,60.5,16,72.68,25.89,79.76,38.07,80H121C130.37,80,138,75.37,138,66Z" style="fill:none"/><path d="M154,66c0-18.2-14.8-30-33-30-.59,0-1.2,0-1.8.09a44.5,44.5,0,0,0-83.76-11C15.64,26.68,0,40.3,0,60.5,0,81.38,17,95.65,33.87,96H42.5l-5.18,8.63a17.64,17.64,0,0,0,8.1,25.29l-1.18,1.91,0,.07a17.63,17.63,0,0,0,24.73,23.94l.36-.24,42.13-29.4a17.68,17.68,0,0,0,.86-28.52,15.44,15.44,0,0,0,.08-1.67H117C139.2,96,154,84.2,154,66Zm-51.64,47L60.14,142.47a1.69,1.69,0,0,1-.9.28,1.65,1.65,0,0,1-1.4-2.5l13.88-22.4a1.64,1.64,0,0,0-1.4-2.49H52.43a1.63,1.63,0,0,1-1.4-2.48L61.15,96H96.37L89,107.47A1.64,1.64,0,0,0,90.35,110h11.12A1.63,1.63,0,0,1,102.36,113ZM16,60.5C16,48.09,26.09,41,38.5,41l.91,0a9.34,9.34,0,0,0,9.28-6.19A28.5,28.5,0,0,1,104,44.48a8.7,8.7,0,0,0,6.8,8.89c2.14.48,3.82.05,5.94-.51A25.14,25.14,0,0,1,121,52c9.37,0,17,4.63,17,14s-7.63,14-17,14H38.07C25.89,79.76,16,72.68,16,60.5Z"/></g></g></svg>