<svg xmlns="http://www.w3.org/2000/svg" viewBox="0 0 154 156.16"><title>stormy</title><g id="Layer_2" data-name="Layer 2"><g id="Layer_1-2" data-name="Layer 1"><path d="M121,52a25.14,25.14,0,0,0-4.26.86c-2.12.56-3.8,1-5.94.51a8.7,8.7,0,0,1-6.8-8.89,28.5,28.5,0,0,0-55.31-9.65A9.34,9.34,0,0,1,39.41,41l-.91,0a22.5,22.5,0,0,0-.43,45H121a17,17,0,0,0,0-34Z" style="fill:none"/><path d="M121,36c-.59,0-1.2,0-1.8.09a44.5,44.5,0,0,0-83.76-11A38.5,38.5,0,0,0,37.87,102H60.33l-9.18,16.15a8,8,0,0,0,7,12h4.39l-7.64,14.3a8,8,0,0,0,12.77,9.37L98.45,122.3a8,8,0,0,0-5.71-13.6H90.27l3.87-6.7H121a33,33,0,0,0,0-66Zm0,50H38.07a22.5,22.5,0,0,1,.43-45l.91,0a9.34,9.34,0,0,0,9.28-6.19A28.5,28.5,0,0,1,104,44.48a8.7,8.7,0,0,0,6.8,8.89c2.14.48,3.82.05,5.94-.51A25.14,25.14,0,0,1,121,52a17,17,0,0,1,0,34Z"/></g></g></svg>