<svg xmlns="http://www.w3.org/2000/svg" viewBox="0 0 321.81 62.7"><title>stormy</title><g id="Layer_2" data-name="Layer 2"><g id="Layer_1-2" data-name="Layer 1"><path d="M223.4,38.27a59.85,59.85,0,0,1-.06,7.42,7.76,7.76,0,0,1-6.68,6.45c-3.34.39-7.26-1.41-8-4.66-2.24-9.95-5.42-19.8-5.16-29.33,2-3.8,4.35-5.35,8.49-5.89,1.91,1,4.55,2.36,7.09,3.85,3.43,2,6.8,4.17,10.18,6.28A11.5,11.5,0,0,0,239,23.8c4.37-2.57,6.58-7,8.78-11.51,2.34-4.83,2.48-4.77,8.47-7.74,4.55.15,7.13,3,8.89,6.82a36.24,36.24,0,0,1,2,5.62,144.25,144.25,0,0,0,13.4,32.1c1,1.73,1.63,3.61,2.57,5.73-.73,1.71-1.12,3.8-2.31,5.23a7.62,7.62,0,0,1-11.42.15,36.13,36.13,0,0,1-4.16-6.75c-3.42-6.82-6.69-13.7-10-20.55-2-.75-3.09.84-4.18,1.82-6.93,6.21-14.83,6.77-23.32,4.25-.95-.28-1.89-.57-2.86-.8A7.34,7.34,0,0,0,223.4,38.27Z"/><path d="M0,53.33c3.72-7.49,4.47-7.91,11.47-7a36.58,36.58,0,0,0,5.89.44,64.22,64.22,0,0,0,7-1.13c-3.56-2.52-6.15-4.42-8.81-6.23A28.22,28.22,0,0,1,6,29.39,24.75,24.75,0,0,1,3.46,22C2,13.12,6.77,6.94,14.85,4.63c7-2,13.86-1.23,20,3.19a19.54,19.54,0,0,1,3,2.64,7.26,7.26,0,0,1-6.3,12.17c-2.23-.41-4.33-1.52-6.51-2.27-1.57-.53-3.18-1.05-4.63.38-.47,1.94.85,3.13,2.11,4,3.53,2.47,7.18,4.77,10.85,7,2.83,1.74,5.82,3.22,8.62,5a21.48,21.48,0,0,1,4.6,3.77c4.66,5.24,4,11.49-1.79,15.41a31.21,31.21,0,0,1-8.12,3.68c-8.34,2.62-17,3.07-25.65,2.75C5.31,62.2,1.58,59.52,0,53.33Z"/><path d="M170.56,44.56l-5.17,7.1a35.66,35.66,0,0,1-4.09.69,7.29,7.29,0,0,1-7.73-5.05,47.5,47.5,0,0,1-1.68-6.72c-1.17-5.5-2.27-11-3.41-16.52-.27-1.29-.72-2.56-.91-3.86-.73-5,.85-9.28,5-12.24a29.31,29.31,0,0,1,20.68-5.57C184.55,3.65,192,16.21,188.16,27c-.89,2.46-2.24,4.77-3.41,7.21,1.12,2.63,3.85,3.43,5.76,5.11,1.49,1.32,3.21,2.38,4.63,3.76a7.88,7.88,0,0,1,1,10.76c-2.41,3-7,3.54-10.8,1.14-1.12-.7-2.09-1.64-3.18-2.4C178.38,49.92,174.56,47.31,170.56,44.56ZM173.5,21c-4.4-3.69-5.32-3.62-9.24.46.67,2,1.39,4.12,2.26,6.68,1.92-1.61,3.49-2.81,4.92-4.16A19.36,19.36,0,0,0,173.5,21Z"/><path d="M112.07,10.13c11.27-1.36,20.51,2,28.46,9.39,4.73,4.38,5.32,13.57,2,20.51a25.51,25.51,0,0,1-15.24,13.46c-8.14,2.82-19.33-.9-23.17-10.34a24.88,24.88,0,0,1,1.47-22.9C107.4,17.1,109.51,14.13,112.07,10.13Zm16.68,20.4c-2-2.7-4.82-3.83-8.43-4-2.6,3.68-3.47,7.11-1,10.86C125.48,38.17,125.68,38,128.75,30.53Z"/><path d="M78,20.82c-.48,6.77,1.92,12,2.82,17.57.42,2.61,1.36,5.14,1.75,7.76a7.47,7.47,0,0,1-5.26,8.5,7.31,7.31,0,0,1-9.15-3.91C67,48,66.49,45,65.55,42.21c-1.65-5-1.42-10.5-4.32-15.69A76.34,76.34,0,0,1,53.7,28.3c-3.8.52-6.87-1.39-7.93-4.54A7.85,7.85,0,0,1,49,14.22a28.15,28.15,0,0,1,3.59-1.72A162.79,162.79,0,0,1,89,2.57a13.41,13.41,0,0,1,4,0,8.1,8.1,0,0,1,6.69,7.58,7.92,7.92,0,0,1-5.49,7.51c-1.58.45-3.29.4-4.91.73C85.68,19.08,82.16,19.9,78,20.82Z"/><path d="M295.52,32.94c-7.3-2.75-11.87-8.13-16.67-13.2a15.68,15.68,0,0,1-2.78-4.08,7.79,7.79,0,0,1,1.7-8.32,7.65,7.65,0,0,1,9.22-1,39.61,39.61,0,0,1,4.45,4c2.42,2.25,4.3,5.14,7.83,6.33,7.55-1,6.39-8.21,9.05-13,5.81-4.87,6.95-4.83,13,.66,1.5,10.79.29,14.06-9.38,25-.7,3.22.4,6.4.94,9.66A74,74,0,0,1,314,49.75c.05,3.76-2.48,6.26-6.07,6.74-3.79.51-7.05-1-8.19-4.19a59.32,59.32,0,0,1-1.85-7.74C297.09,41,296.41,37.39,295.52,32.94Z"/></g></g></svg>