<svg xmlns="http://www.w3.org/2000/svg" viewBox="0 0 302.3 65.31"><title>sunny</title><g id="Layer_2" data-name="Layer 2"><g id="Layer_1-2" data-name="Layer 1"><path d="M201.35,36.26c-1.11,4.05.28,7.18.9,10.41a26.29,26.29,0,0,1,.64,5.91c-.14,3.27-3,6.21-6.3,6.85a7.42,7.42,0,0,1-7.76-3.36,15.93,15.93,0,0,1-2.06-5.57,250.71,250.71,0,0,0-6-31.35,16.57,16.57,0,0,1,0-3.92c1.68-4,4.35-6.7,8.45-7.48,3.48,0,5.92,1.81,8.23,3.71,4.37,3.6,8.65,7.31,12.92,11,5.78,5,11.46,10.18,17.3,15.13,1.68,1.42,3.79,2.34,6.54,4a49.82,49.82,0,0,0-.54-6.74c-1.34-5.83-3-11.6-4.32-17.43a47.46,47.46,0,0,1-1.28-8.85,6.86,6.86,0,0,1,5.07-6.66,7.37,7.37,0,0,1,8,2.66,13.85,13.85,0,0,1,2.09,4.47c2.36,9.69,4.76,19.37,6.79,29.14a23.86,23.86,0,0,1-2.23,15.56c-2.39,4.86-5.91,6.68-11.39,6.26a17.45,17.45,0,0,1-9.19-3.6c-6.92-5.19-13.69-10.58-20.51-15.9C205,39.19,203.33,37.83,201.35,36.26Z"/><path d="M130.7,41.42a50.39,50.39,0,0,1,1.45,6.2,8.33,8.33,0,0,1-6.35,8.94,7.69,7.69,0,0,1-9.12-5.85c-2.82-12-5.2-24-4.14-36.6,1.32-1.24,2.35-2.65,3.74-3.43,3.58-2,7.86-1.34,9.62,2.16,3.91,7.8,11.23,12.13,17.19,17.81a68.49,68.49,0,0,0,15,10.69c.46-1.74,1-3,1-4.17,0-6.69-.33-13.34-3.38-19.5a11.87,11.87,0,0,1-.83-1.82C152.54,8,158,4,163.44,5.13a29.69,29.69,0,0,1,3,1c5.21,5.53,7,12.73,7.85,20,.78,6.57.37,13.3.25,20a17.77,17.77,0,0,1-1.35,5.78c-2.81,7.46-8.56,10.12-16,7.12a52.55,52.55,0,0,1-9.58-5.33C142.44,50.07,137.39,46.25,130.7,41.42Z"/><path d="M16.93,16.28c-1,3.26.08,5,1.48,6.42,3.55,3.5,7.17,6.94,11,10.16,2.79,2.36,5.9,4.33,8.86,6.48,1.08.78,2.16,1.56,3.22,2.36C49.8,48,49.11,59.12,38.12,62.38c-7,2.09-14.2,3.6-21.62,2.64-2.3-.3-4.6-.77-6.87-1.28a18.41,18.41,0,0,1-3.75-1.27c-4.28-2-6.2-5.95-4.87-9.7a7.61,7.61,0,0,1,9.59-5c4.13,1.09,8.12,2.28,13.23.93-3.64-3-6.88-5.27-9.7-8a86.25,86.25,0,0,1-10-11A23.64,23.64,0,0,1,.39,20.56C-1.81,9.55,5.58,1.2,15.76.16A34.27,34.27,0,0,1,37.62,5.68c2.79,1.77,3.59,4.72,2.9,7.93a7.06,7.06,0,0,1-5.19,5.54,9.92,9.92,0,0,1-4.87,0,63.58,63.58,0,0,1-6.52-2.47A11.41,11.41,0,0,0,16.93,16.28Z"/><path d="M51.88,14.49c1-3.44,1.88-4.78,7.25-4.94,6-.2,6.36,1.23,7.06,3.84.8,3.92,1.68,7.46,2.22,11.05a30,30,0,0,0,4.84,11.9c2.22,3.43,5.11,6.07,9.93,6.63,4.57-6.1,6.14-12.84,4.15-20.32-.68-2.55-2-4.94-2.62-7.49C83.64,10.84,87,6.35,91.43,5.8a6.43,6.43,0,0,1,6.2,2.45,28.15,28.15,0,0,1,3.84,6.9c4.39,12,2.56,23.59-3.28,34.57-3,5.6-8.28,8.41-14.18,9.42-7.82-.83-14.5-3.24-19.79-8.94a46.47,46.47,0,0,1-11.5-23.89C52.08,22.76,52.18,19.07,51.88,14.49Z"/><path d="M282.58,16.87c2.64-2.76,3.46-5.94,4-9.24.66-4.13,3.23-6.38,7.48-7.32a8,8,0,0,1,7.1,4.12c1.48,2.47,1.3,5.06.7,7.71-1.81,8-5.11,15.06-12.61,19.41a17.61,17.61,0,0,0-2.41,2.22c1,6.09,2,12.28,3.1,18.73A24.62,24.62,0,0,1,288.61,56a6.92,6.92,0,0,1-7.51,3.67,7.25,7.25,0,0,1-6.39-5.52c-1-3.82-1.59-7.78-2.28-11.69-.58-3.25-1.06-6.51-1.58-9.78-2.61-1.86-5.1-3.49-7.43-5.31A48,48,0,0,1,251.6,14a7.76,7.76,0,0,1-.49-7.6,7.39,7.39,0,0,1,11.67-2.59c1.47,1.29,2.49,3.08,3.87,4.5,2.53,2.61,5.06,5.24,7.82,7.6C276.59,17.73,279.2,18.23,282.58,16.87Z"/></g></g></svg>