<svg xmlns="http://www.w3.org/2000/svg" viewBox="0 0 47.86 76.21"><title>three_1</title><g id="Layer_2" data-name="Layer 2"><g id="Layer_1-2" data-name="Layer 1"><path d="M26.12,58c-2.58-3.61-5.68-5.47-8.91-7.17A46.22,46.22,0,0,1,12,48c-5.32-3.75-5.05-10.56.6-14a79,79,0,0,1,7.19-3.43,25.74,25.74,0,0,0,9.43-7.18,32.75,32.75,0,0,0,2.69-4.78c-.46-2.5-1.85-3.28-3.67-3-5,.67-9.75,2.12-13.14,6.26a11.72,11.72,0,0,1-7,4.61,11.84,11.84,0,0,1-3.21-.89c-5-2.82-6.19-7-3.28-11.54a24.3,24.3,0,0,1,3.7-4.67C13.88,1.4,24-1.85,35.48,1c9.89,2.5,14.23,10.88,11.65,20.81-1.46,5.6-4,10.56-8.41,14.41-2,1.73-4.09,3.31-6,4.87,2.71,3.12,4.87,5.22,6.59,7.64,6.31,8.89,4.19,18.49-5.21,23.67-9,5-18.45,4.55-27.93,1.41a9.21,9.21,0,0,1-2.61-1.42,7.77,7.77,0,0,1-2.76-8A7.58,7.58,0,0,1,8.22,59,47.22,47.22,0,0,1,15,60.2C18.73,61,22.28,61.08,26.12,58Z"/></g></g></svg>