<svg xmlns="http://www.w3.org/2000/svg" viewBox="0 0 47.21 73.09"><title>three_0</title><g id="Layer_2" data-name="Layer 2"><g id="Layer_1-2" data-name="Layer 1"><path d="M29.37,54.82c-4.21-4-7.89-6.28-11.35-8.83-3.71-2.72-3.69-2.75-5.84-8.78A9.33,9.33,0,0,1,18,29.72a44,44,0,0,0,5.48-2.39,39,39,0,0,0,4.71-4.07c-.55-1.71-.66-3.53-1.6-4.66-1.94-2.34-2.44-2.28-9.16-2.63l-8.92,5C3.29,20.18.7,17.61,0,13A13.67,13.67,0,0,1,7.46,3,25.24,25.24,0,0,1,21.94.13c1.65.17,3.26.64,4.9.94,12.94,2.33,18.66,15,16.69,25.54a15.5,15.5,0,0,1-2.29,5.47c-1.45,2.21-3.32,4.15-5.35,6.63,2,2,4.06,4.07,6.08,6.16,10,10.31,4.11,19.89-4.12,23.56a56.21,56.21,0,0,1-27.29,4.49,15,15,0,0,1-2.91-.68c-4.92-1.38-7-4-6.58-8.56.37-4.31,3.17-6.56,8.32-6.61,3.66,0,7.34.23,11-.08C23,56.76,25.49,55.79,29.37,54.82Z"/></g></g></svg>