<svg xmlns="http://www.w3.org/2000/svg" viewBox="0 0 69.69 68.11"><title>two_2</title><g id="Layer_2" data-name="Layer 2"><g id="Layer_1-2" data-name="Layer 1"><path d="M29,62.12a69.6,69.6,0,0,1-7.84,4,34.22,34.22,0,0,1-8.47,1.94,6.54,6.54,0,0,1-7.23-4.39C4,59.77,4.23,55.84,6.8,52.45a13.51,13.51,0,0,1,7.4-5c3.66-1,7.38-1.67,11.92-2.67,5-3.13,8-9.08,9.68-16,.93-3.75.83-4-1.59-10.35C29.92,13.79,25.42,17,21,18.06c-5.14,1.2-6.93,6.69-9.64,10.54C3.7,31,2.89,30.57,0,22.49,2.28,13,7.63,6.5,16.07,3.55,20.23,2.1,24.5,1.08,28.25,0c2.55.51,4.56.87,6.56,1.31,7.36,1.62,11.54,7.16,13.9,14.89,2.23,7.29,1.45,14.42-1.05,21.39-1.31,3.67-2.84,7.24-4.35,11a18.37,18.37,0,0,0,13,1.79,32.46,32.46,0,0,1,6.91-.94c2.91,0,5.56,2.62,6.31,5.86s-.63,6.91-3.47,8.31a21.53,21.53,0,0,1-6.68,2,53.91,53.91,0,0,1-21.66-1.34C34.86,63.51,32,62.88,29,62.12Z"/></g></g></svg>