<svg xmlns="http://www.w3.org/2000/svg" viewBox="0 0 62.89 69.5"><title>two_1</title><g id="Layer_2" data-name="Layer 2"><g id="Layer_1-2" data-name="Layer 1"><path d="M11.22,69a21.82,21.82,0,0,1-3.7-1.28C1.55,64,1.1,57.06,6.62,53a28.94,28.94,0,0,1,5.25-2.79c1.5-.69,3.1-1.14,4.32-1.58A47.7,47.7,0,0,0,28.51,34a23,23,0,0,0,2.06-4.52c1.29-4.15.79-7.94-2.89-10.75A50.74,50.74,0,0,0,23,15.75c-5,1.15-7.11,4.15-7.89,8.46A6.53,6.53,0,0,1,10,29.7C4.45,31.1-.18,27.52,0,21.87.26,13.91,4.17,8,10.68,3.76,18-.94,25.54-1.37,33.2,3.26c11.32,6.84,18.32,18.49,11.09,34-1.79,3.86-4,7.54-6.1,11.59,4.26,3,9.49,2.9,14.1,4.57,2.17.79,4.52,1.14,6.61,2.08a7,7,0,0,1,3.93,7.41c-.42,3.38-3.15,6.48-6.45,6.55a37.56,37.56,0,0,1-8.83-.95c-5.5-1.23-10.91-2.86-16.4-4.14A62.9,62.9,0,0,0,24,63.57c-2,1-3.94,2.25-6.05,3.14S13.6,68.19,11.22,69Z"/></g></g></svg>