<svg xmlns="http://www.w3.org/2000/svg" viewBox="0 0 62.11 69.04"><title>two_0</title><g id="Layer_2" data-name="Layer 2"><g id="Layer_1-2" data-name="Layer 1"><path d="M30.78,17c-3.13-1.62-5.79-.89-7.94,1.75a36.43,36.43,0,0,0-2.74,4.16,9.37,9.37,0,0,1-7.43,4.64c-4.4-.62-7-3.21-7.76-8.09,1-5.12,4.16-9.36,8-13.18C18.53.52,25.59-.92,33.14.52,39.46,1.72,43.77,6,46.26,11.79a28.05,28.05,0,0,1,1.38,19.53C45.91,37,43.9,42.64,42,48.42c.79,1.86,2.67,1.32,4.16,1.51,2.31.31,4.66.29,7,.59,4.29.55,7.54,2.51,9,7.64a27.58,27.58,0,0,1-1.25,4.06,6.51,6.51,0,0,1-6.36,4,89.37,89.37,0,0,1-10-.63c-5.6-.73-11.16-1.72-15.64-2.42-5.68,2.08-10.3,3.94-15,5.41A13.4,13.4,0,0,1,8,68.84c-3.86-.57-7-2.37-7.76-6.63S.5,54,4.23,51.69A35.4,35.4,0,0,1,13.37,48a90.1,90.1,0,0,1,9.4-1.66c5.52-5.54,8.13-12,9.6-18.87C33.14,23.92,33.38,20.16,30.78,17Z"/></g></g></svg>