<svg xmlns="http://www.w3.org/2000/svg" viewBox="0 0 149.91 148.66"><title>windy</title><g id="Layer_2" data-name="Layer 2"><g id="Layer_1-2" data-name="Layer 1"><path d="M82.36,85.87c-23.86,0-42.26-12-56.5-23.59A8,8,0,0,1,36,49.89c18,14.69,38.72,26.76,69,15.68,12.88-4.73,23.55-16.51,18.33-32.18C117.79,16.9,101,13.7,87.63,17.7A8,8,0,1,1,83,2.37c12.84-3.85,25.14-3,35.55,2.47a41.08,41.08,0,0,1,19.88,23.49c6,18-.2,42.06-28,52.26A81.21,81.21,0,0,1,82.36,85.87Z"/><path d="M123.54,148.66a36.65,36.65,0,0,1-12-2.13,8,8,0,0,1,5.26-15.12c6.52,2.27,11.79,1.47,14.86-2.25a10.46,10.46,0,0,0,.77-11.89c-4.08-7-15.46-9.55-30.42-6.88-49.7,8.85-81.33-17.12-98.33-31.07l-.75-.62A8,8,0,1,1,13.07,66.33l.77.62C29.89,80.13,56.77,102.2,99.2,94.63c31.49-5.61,43.39,8.31,47,14.56A26.53,26.53,0,0,1,144,139.32,25.83,25.83,0,0,1,123.54,148.66Z"/></g></g></svg>