<svg xmlns="http://www.w3.org/2000/svg" viewBox="0 0 290.98 65.67"><title>windy</title><g id="Layer_2" data-name="Layer 2"><g id="Layer_1-2" data-name="Layer 1"><path d="M59.32,49.29c4.16-5.91,2.65-12.36,2.85-18.5S59.74,19.14,57.86,13.4c.44-1.33.57-2.77,1.31-3.78,4.38-6.06,11-5.74,14.11.87a52.83,52.83,0,0,1,3.58,11.38A60.59,60.59,0,0,1,76,51.51,26.82,26.82,0,0,1,73.77,57c-4.64,8.38-13.88,11.05-22.24,6.27a91.91,91.91,0,0,1-8.92-6.39c-2.37-1.78-4.66-3.67-7.2-5.66-7,4.69-11.59,12.6-20.52,13.82a11.47,11.47,0,0,1-10.8-8.95C.56,43.2-1.28,30.06,1,16.65a17.13,17.13,0,0,1,.74-2.9c1.16-3.32,4.09-5,7.89-4.69s6.28,2.74,6.52,6.34c.16,2.32-.13,4.66-.1,7,.06,5.32.07,10.66.36,16,.11,1.89,1,3.74,1.59,6,4.36-3.35,8.11-6.41,12.06-9.18,1.29-.9,3.13-1,4.42-1.41C44.9,35.71,50.39,44.93,59.32,49.29Z"/><path d="M129.84,41.18c-.06,2.91-.11,4.84-.13,6.76a43.51,43.51,0,0,1-.05,5A7.77,7.77,0,0,1,114.55,54a40,40,0,0,1-.79-5.91c-1-8.56-2-17.12-3.12-27a5.29,5.29,0,0,1,1.08-2.25c3.44-4,7.12-4.85,11.4-2.2,5.36,3.32,10.52,7,15.72,10.58,2.71,1.88,5.3,3.94,8.78,6.54-.62-8.57-4.46-15.42-5.39-23.21a7.39,7.39,0,0,1,3.93-6.23,11.7,11.7,0,0,1,5.74-1A6.18,6.18,0,0,1,157.74,8q5.85,19.58,11.5,39.2a32.45,32.45,0,0,1,.89,6.91c.24,3.56-.87,6.7-4,8.55a9.42,9.42,0,0,1-10.39-.42,63.48,63.48,0,0,1-7-5.6c-4.47-4-8.79-8.13-13.3-12.07C134,43.37,132.24,42.63,129.84,41.18Z"/><path d="M178.18,21.34c1.73-8.92,7.24-11.72,14.59-12,11.82-.45,22.1,3.61,31.23,10.9a14.59,14.59,0,0,1,2.1,2.13c6.38,7.71,7.22,14.7,2,22.74a27.14,27.14,0,0,1-8.45,8.28c-7.37,4.68-15.54,7.42-23.83,9.84a7.86,7.86,0,0,1-2.95.4c-2.27-.21-4.75-.15-6.72-1.09-2.45-1.17-3.75-3.65-3.85-7.24L186.15,48C185.27,38.61,181.58,30.07,178.18,21.34Zm19.43,4c1.49,7.14,1.88,13.21,5.51,18.31,4.29-.71,7.24-2.86,10-5.17,1.12-.94,1.66-2.56,2.65-4.16C211,29.26,205.56,26.62,197.61,25.37Z"/><path d="M275.93,35.66c.35,2.51.71,5.1,1.1,7.69.48,3.28,1.21,6.54,1.44,9.84.32,4.5-1.85,7.5-5.5,8.25-4.36.9-7.88-1.06-9.21-5.46-.87-2.84-1.33-5.81-1.94-8.73s-1.17-5.81-1.81-9c-2.21-.94-4.3-1.87-6.42-2.72-7.43-3-12.46-8.63-16.73-15.1a9,9,0,0,1-1.28-6.67c.88-5.37,7.39-8.12,11.47-4.62,2.23,1.92,4,4.42,5.89,6.7,3.95,4.71,8.72,7,15.25,5.21,6.19-3.77,8.08-9.81,7.17-15.94.92-1.52,1.14-2.27,1.63-2.61,6.49-4.46,11.59-2.93,13.52,4.25a17.14,17.14,0,0,1,.24,6.81c-1,6.44-4.19,11.84-8.64,16.49C280.29,32,278.21,33.61,275.93,35.66Z"/><path d="M104,46.72c0,1.69.13,3.37,0,5A7.25,7.25,0,0,1,98.37,58a7.66,7.66,0,0,1-8-2.77,8.51,8.51,0,0,1-1.71-3.56q-1.56-14.39-2.76-28.81a6.54,6.54,0,0,1,1.3-3.68,7.47,7.47,0,0,1,13.06.91,12.21,12.21,0,0,1,1.22,3.78C102.38,31.51,103.17,39.12,104,46.72Z"/></g></g></svg>