<svg xmlns="http://www.w3.org/2000/svg" viewBox="0 0 149.06 149.09"><title>windy</title><g id="Layer_2" data-name="Layer 2"><g id="Layer_1-2" data-name="Layer 1"><path d="M82.36,85.87c-23.86,0-42.26-12-56.5-23.59A8,8,0,0,1,36,49.89c18,14.69,38.72,26.76,69,15.68,12.88-4.73,23.55-16.51,18.33-32.18C117.79,16.9,101,13.7,87.63,17.7A8,8,0,1,1,83,2.37c12.84-3.85,25.14-3,35.55,2.47a41.08,41.08,0,0,1,19.88,23.49c6,18-.2,42.06-28,52.26A81.21,81.21,0,0,1,82.36,85.87Z"/><path d="M123.84,149.09a32.85,32.85,0,0,1-12.79-2.75,8,8,0,0,1,6.24-14.74c5.57,2.36,10.23,1.88,13.13-1.35a11.43,11.43,0,0,0,1.23-12.88c-3.89-7-15-9.6-29.64-7-49.7,8.86-81.33-17.12-98.33-31.07l-.75-.62A8,8,0,1,1,13.07,66.33l.77.62C29.89,80.13,56.77,102.19,99.2,94.63c31.29-5.57,42.89,8.61,46.43,15a27.49,27.49,0,0,1-3.3,31.35A24.3,24.3,0,0,1,123.84,149.09Z"/></g></g></svg>