<svg xmlns="http://www.w3.org/2000/svg" viewBox="0 0 74.03 69.63"><title>zero_2</title><g id="Layer_2" data-name="Layer 2"><g id="Layer_1-2" data-name="Layer 1"><path d="M43.05,0c4.57.82,9.17,1.42,13.64,2.52A24.41,24.41,0,0,1,67.8,8.89c4,3.87,6.52,8.51,6.21,14.13a58.41,58.41,0,0,1-1.88,12.72C68.47,48.43,60.5,58.13,49.35,64.83c-10.82,6.52-22.14,6.45-32.93-.48S-.77,47.93.07,34.56C1,20.51,12.63,6,26.24,2.67,31.68,1.33,37.34.88,43.05,0ZM57.73,21.34c-3.51-3.95-8-5.1-12.72-4.83-4.28.24-8.51,1.45-12.79,1.69-6.86.38-10.84,4.56-14,9.89-4.14,7.08-3,14.46,2.69,20,6.78,6.55,14.48,7.65,21.62,2.58A38.15,38.15,0,0,0,56.63,33,20.2,20.2,0,0,0,57.73,21.34Z"/></g></g></svg>