<svg xmlns="http://www.w3.org/2000/svg" viewBox="0 0 75.29 75.05"><title>zero_1</title><g id="Layer_2" data-name="Layer 2"><g id="Layer_1-2" data-name="Layer 1"><path d="M27.24,75.05C20.48,75,12.36,71.24,6.67,62.7-1.57,50.35-1.88,37.44,4.12,24.22A45,45,0,0,1,22.92,3.87c8.36-4.89,17-5.24,25.69-.51,2.93,1.59,6,2.9,9.06,4.27,15,6.78,21,20.71,15.72,36.24C67.43,61.28,48.74,74.86,27.24,75.05Zm32-42.53C57.67,25.77,53.44,23,48,22c-6.26-1.15-12.6-1.83-18.4-2.65-10.68,8.79-14,15.74-12.79,26,.87,7.12,5.93,14.84,16.72,12.71a28.74,28.74,0,0,0,5.72-1.69C49.83,51.9,57.39,44.79,59.19,32.52Z"/></g></g></svg>