<svg xmlns="http://www.w3.org/2000/svg" viewBox="0 0 78.4 76.4"><title>zero_0</title><g id="Layer_2" data-name="Layer 2"><g id="Layer_1-2" data-name="Layer 1"><path d="M40.56,0A44.38,44.38,0,0,1,66.12,8.47C77.59,16.82,80.52,28.14,77,41.12a35.27,35.27,0,0,1-5.66,11.56A60.89,60.89,0,0,1,40.17,74.92a31.3,31.3,0,0,1-15.79.84c-9.3-1.92-16.36-6.92-20.32-16-5.68-13-5.22-25.86.25-38.71a25.34,25.34,0,0,1,7.13-9.5c1.28-1.06,2.86-1.81,4-3C22,1.17,30.88.27,40.56,0ZM63.09,32.39c-1-7.85-5.64-11.29-11.19-14.2-10-5.27-23.53.32-30.67,5.89a8.85,8.85,0,0,0-2.31,3.22c-4,8.59-4.38,17.34-.5,26.05a10.86,10.86,0,0,0,10.17,6.88c2.63.05,5.51.2,7.88-.73C49.34,54.44,60,47,63.09,32.39Z"/></g></g></svg>